<svg xmlns="http://www.w3.org/2000/svg" viewBox="0 0 106 40">
    <defs>
        <style>.logo-a{font-size: 18px;text-transform: uppercase;font-family:'Rubik',
            Helvetica;font-weight:700;}.logo-c{fill:none;} .logo-total {fill:white;}
        </style>
    </defs>
    <g transform="translate(-1142 -19)" class="logo-total">
        <text class="logo-a" transform="translate(1142 37)">
            <tspan x="10.997" y="14">CityRide</tspan>
        </text>
        <g transform="translate(1164 19)">
            <path class="logo-b"
                  d="M2.975,17.9c-.1,0-.211,0-.332-.013a.976.976,0,0,1-.785-.773c-.082-.726-.157-1.462-.226-2.153-.009-.085-.01-.173-.01-.258,0-.05,0-.1,0-.148-.008-.191-.047-.29-.251-.335a.541.541,0,0,1-.444-.449A28.126,28.126,0,0,1,.19,10.495c-.02-.134-.043-.271-.065-.4A8.4,8.4,0,0,1,0,9.156,2.19,2.19,0,0,1,.368,7.846Q.635,7.425.9,7L.9,6.992l.287-.459a2.322,2.322,0,0,0,.481-1.077A17.575,17.575,0,0,1,2.3,3.212a3.675,3.675,0,0,1,.671-1.236,1.833,1.833,0,0,1,1.3-.612l.464-.036c.433-.033.875-.067,1.308-.126.282-.038.57-.055.848-.072.322-.019.655-.039.979-.091.4-.064.811-.1,1.207-.13.319-.026.648-.053.97-.1C10.615.74,11.194.7,11.753.663L11.9.652A3.913,3.913,0,0,0,12.309.6a5.655,5.655,0,0,1,1-.1h.025a6.514,6.514,0,0,0,.879-.08c.111-.015.222-.03.333-.043.431-.05.886-.083,1.392-.1.293-.01.587-.048.872-.084.118-.015.235-.03.353-.043l.2-.023A14.308,14.308,0,0,1,18.979,0c.077,0,.154,0,.228,0a1.48,1.48,0,0,1,1.04.544,6.3,6.3,0,0,1,.687.957l.039.062a10.947,10.947,0,0,1,.994,2.02,2.814,2.814,0,0,0,.692.965c.162.166.331.331.494.491.1.094.19.186.283.278a3.567,3.567,0,0,1,.814,1.21c.028.27.051.544.073.808.012.144.024.287.037.431a14.926,14.926,0,0,1,.031,1.553v.006q0,.17,0,.34a11.718,11.718,0,0,1-.077,1.24,4.327,4.327,0,0,0-.022.624.47.47,0,0,1-.22.438.769.769,0,0,0-.09.073.894.894,0,0,1-.078.065.191.191,0,0,0-.089.234,1.082,1.082,0,0,1,.036.337c0,.031,0,.063,0,.094.013.533.073,1.072.132,1.592v.008c.017.15.034.3.05.449a.861.861,0,0,1-.238.77.784.784,0,0,1-.29.2,3.672,3.672,0,0,1-.933.2l-.268.019c-.539.038-1.1.078-1.638.17a1.175,1.175,0,0,1-.194.016,1.362,1.362,0,0,1-.764-.258.446.446,0,0,1-.2-.311c-.029-.205-.066-.413-.1-.613a8.764,8.764,0,0,1-.169-1.424,4.773,4.773,0,0,0-.066-.653l-.011-.073c-.032-.223-.109-.293-.343-.309-.108-.008-.213-.011-.314-.011a3.615,3.615,0,0,0-.454.028l-.224.029h-.006c-.431.056-.876.114-1.32.133-.525.023-1.029.09-1.633.174a3.039,3.039,0,0,1-.407.035h-.1a8,8,0,0,0-1.054.094l-.105.014c-.346.045-.727.077-1.2.1-.294.015-.589.058-.874.1l-.186.027c-.366.052-.738.08-1.118.105-.438.03-.83.07-1.2.124a10.169,10.169,0,0,1-1.137.081l-.066,0a3.85,3.85,0,0,0-.887.166c-.209.057-.274.142-.267.352.01.312.033.63.055.937l.016.224c.012.18.037.362.061.537a5.96,5.96,0,0,1,.069.755.979.979,0,0,1-.906,1.066,6.046,6.046,0,0,1-.9.089,6.746,6.746,0,0,0-1.092.125l-.1.018A2.939,2.939,0,0,1,2.975,17.9ZM1.451,9.643h0l0,.1v.015l0,.063c0,.085.009.174.016.261.019.243.081.31.287.31l.08,0c.067,0,.118-.011.164-.018.156-.022.312-.041.464-.06h.006l.034,0h.009l.03,0,.27-.035a5.009,5.009,0,0,1,.513-.034H3.4c.14,0,.285-.01.426-.028l.21-.026c.49-.061,1.045-.129,1.587-.157l.172-.009h.014a4.257,4.257,0,0,0,.9-.106c.235-.061.28-.122.254-.342-.031-.256-.073-.525-.126-.8-.032-.169-.09-.22-.246-.22H6.557l-.134.006c-.446.022-.907.044-1.369.089-.184.018-.369.042-.543.065l-.03,0H4.473c-.316.041-.675.087-1.023.1a11.513,11.513,0,0,0-1.658.187c-.313.057-.332.08-.335.413,0,.023,0,.047,0,.071v.173ZM18.037,7.379h-.006a3.963,3.963,0,0,0-.478.041c-.313.053-.346.1-.354.468a2.48,2.48,0,0,0,.212.854c.036.079.075.113.13.113a.187.187,0,0,0,.059-.011.9.9,0,0,1,.284-.036,1.31,1.31,0,0,0,.178-.011,3.264,3.264,0,0,1,.44-.026,2.982,2.982,0,0,0,.489-.035,13.977,13.977,0,0,1,1.823-.188c.288-.015.579-.056.835-.093l.015,0a8.461,8.461,0,0,1,.891-.094c.172-.006.237-.079.239-.267a3.574,3.574,0,0,0-.114-.855.328.328,0,0,0-.334-.27h-.059l-.061,0a.759.759,0,0,0-.126.01,15.208,15.208,0,0,1-1.707.179h-.028l-.243.016L20,7.181l-.023,0c-.288.021-.585.058-.847.091l-.038,0-.036,0c-.259.032-.527.065-.793.084-.041,0-.083.005-.125.007l-.041,0-.053,0ZM4.271,6.264h.34a2.733,2.733,0,0,0,.439-.029c.435-.073.881-.1,1.313-.133l.076,0,.177-.01.063,0h.011a6.342,6.342,0,0,0,.731-.069A11.213,11.213,0,0,1,9,5.87a2.341,2.341,0,0,0,.272-.022l.144-.022L9.561,5.8l.008,0a9.119,9.119,0,0,1,1.384-.14h.007a3.119,3.119,0,0,0,.436-.038c.188-.026.381-.046.567-.064l.03,0c.194-.02.415-.042.628-.072a4.411,4.411,0,0,1,.494-.032h.029a4.178,4.178,0,0,0,.46-.03c.546-.077,1.193-.162,1.85-.2.336-.022.639-.051.926-.088l.134-.018.017,0h.005l.019,0a4.5,4.5,0,0,1,.607-.055l.092,0,.081,0A3.826,3.826,0,0,0,17.863,5l.013,0c.065-.009.129-.018.194-.026.1-.012.2-.025.3-.039l.065-.009h.007a7.228,7.228,0,0,1,.978-.089h.057A2.7,2.7,0,0,0,20,4.774a.763.763,0,0,0,.563-.376.749.749,0,0,0-.027-.657c-.105-.226-.21-.456-.313-.682l-.1-.215,0-.006,0-.008q-.153-.335-.306-.67c-.088-.192-.18-.378-.26-.538a.756.756,0,0,0-.661-.457c-.148-.007-.282-.013-.415-.013a3.5,3.5,0,0,0-.408.022l-.326.04-.123.015c-.448.057-.912.115-1.374.136l-.081,0H16.16c-.15.006-.305.013-.459.034-.09.013-.181.028-.27.042L15.4,1.45a5.561,5.561,0,0,1-.7.086c-.388.014-.838.035-1.282.1-.387.054-.844.113-1.308.132l-.1,0H12a6.06,6.06,0,0,0-1.012.1,6.387,6.387,0,0,1-1.172.109,4.5,4.5,0,0,0-.708.061,10.606,10.606,0,0,1-1.3.146l-.169.005a2.341,2.341,0,0,0-.377.029,7.982,7.982,0,0,1-.949.129L6.1,2.359a13.142,13.142,0,0,0-1.778.2c-.461.094-.611.192-.721.653-.142.6-.278,1.19-.4,1.743l-.085.369-.009.04L3.1,5.4a1.135,1.135,0,0,0-.045.266.548.548,0,0,0,.572.593l.235,0h.413Z"
                  transform="translate(16.591 0)"></path>
            <path class="logo-b"
                  d="M1.017.111C1.4.12,1.835.068,2.272.037c.073-.005.146-.01.219-.01Q5.842.014,9.193,0q1.456,0,2.912,0c.293,0,.585.016.878.024.065,0,.147-.005.158.072.014.1-.084.1-.151.117a.659.659,0,0,1-.163.015A13.056,13.056,0,0,0,11.266.3C10.7.349,10.14.41,9.575.442,9.165.466,8.754.455,8.343.5c-.6.067-1.2.11-1.8.164a.4.4,0,0,1-.055,0A13.463,13.463,0,0,0,4.47.825C4.288.842,4.1.839,3.922.844c-.8.018-1.6.1-2.4.192a6.5,6.5,0,0,1-1.233.008A.274.274,0,0,1,0,.748C0,.7,0,.658.005.612.01.252.121.135.492.113.647.1.8.111,1.017.111"
                  transform="translate(0 8.573)"></path>
            <path class="logo-b"
                  d="M12.062.061a1.464,1.464,0,0,1-.425.16q-2.773.916-5.549,1.827Q3.377,2.931.662,3.8c-.335.108-.526.02-.634-.279A.483.483,0,0,1,.36,2.9c.261-.084.529-.143.795-.21L9.791.491c.576-.146,1.15-.3,1.727-.44a.7.7,0,0,1,.543.009"
                  transform="translate(2.728 11.942)"></path>
            <path class="logo-b"
                  d="M.381.006a9.141,9.141,0,0,1,1.107.14C3.1.394,4.72.648,6.336.9l3.711.58.109.016a.528.528,0,0,1,.472.8.3.3,0,0,1-.267.2,1.193,1.193,0,0,1-.38-.038q-3.155-.71-6.31-1.424C2.539.774,1.406.522.275.262.171.239-.011.268,0,.106c.013-.18.189-.07.29-.1a.724.724,0,0,1,.091,0"
                  transform="translate(44.293 8.351)"></path>
            <path class="logo-c"
                  d="M0,.923C.009.552.045.508.354.455.589.415.827.418,1.063.4,1.638.362,2.2.259,2.777.217A19.865,19.865,0,0,0,4.9.01,1.137,1.137,0,0,1,5.147,0,.328.328,0,0,1,5.48.273a3.534,3.534,0,0,1,.115.855c0,.18-.061.261-.239.268-.586.021-1.157.158-1.742.188a13.937,13.937,0,0,0-1.823.188c-.306.057-.62.016-.929.061A2.426,2.426,0,0,0,.4,1.879c-.1.034-.149-.014-.188-.1A2.467,2.467,0,0,1,0,.923"
                  transform="translate(33.789 6.965)"></path>
            <path class="logo-c"
                  d="M.006,1.109c0-.081,0-.163,0-.244C.01.534.026.508.341.452A11.638,11.638,0,0,1,2,.264C2.537.246,3.069.149,3.6.1c.5-.049,1-.071,1.5-.1.189-.009.25.042.284.219.051.266.094.533.126.8.026.222-.023.282-.254.342a5.368,5.368,0,0,1-1.087.114c-.6.032-1.2.111-1.8.184-.337.041-.674.019-1.011.064-.271.036-.543.067-.814.1-.054.008-.109.014-.163.018-.276.017-.346-.041-.368-.307C.012,1.4.008,1.254,0,1.109H.006"
                  transform="translate(18.041 8.535)"></path>
        </g>
    </g>
</svg>